<svg xmlns="http://www.w3.org/2000/svg" viewBox="0 0 128 128" width="128" height="128">
  <rect width="128" height="128" rx="20" fill="#0d1117"/>
  <!-- Voxel cube -->
  <polygon points="64,20 100,40 100,72 64,92 28,72 28,40" fill="none" stroke="#00ff88" stroke-width="2"/>
  <polygon points="64,20 100,40 64,60 28,40" fill="#00ff8822"/>
  <polygon points="64,60 100,40 100,72 64,92" fill="#00ff8811"/>
  <polygon points="64,60 28,40 28,72 64,92" fill="#00ff8818"/>
  <!-- Extraction arrow -->
  <line x1="64" y1="56" x2="64" y2="78" stroke="#ff4444" stroke-width="3" stroke-linecap="round"/>
  <polyline points="54,68 64,78 74,68" fill="none" stroke="#ff4444" stroke-width="3" stroke-linecap="round" stroke-linejoin="round"/>
  <!-- Crosshair dots -->
  <circle cx="64" cy="40" r="2" fill="#00ff88"/>
  <circle cx="82" cy="50" r="1.5" fill="#00ff88" opacity="0.6"/>
  <circle cx="46" cy="50" r="1.5" fill="#00ff88" opacity="0.6"/>
  <text x="64" y="108" text-anchor="middle" font-family="monospace" font-size="9" fill="#00ff88" font-weight="bold">VOXEL EXTRACT</text>
</svg>
